<?xml version="1.0" encoding="UTF-8" standalone="no"?>
<!-- Created with Inkscape (http://www.inkscape.org/) -->

<svg
   xmlns:dc="http://purl.org/dc/elements/1.1/"
   xmlns:cc="http://creativecommons.org/ns#"
   xmlns:rdf="http://www.w3.org/1999/02/22-rdf-syntax-ns#"
   xmlns:svg="http://www.w3.org/2000/svg"
   xmlns="http://www.w3.org/2000/svg"
   xmlns:sodipodi="http://sodipodi.sourceforge.net/DTD/sodipodi-0.dtd"
   xmlns:inkscape="http://www.inkscape.org/namespaces/inkscape"
   id="svg3039"
   version="1.1"
   inkscape:version="0.48.2 r9819"
   width="197.59375"
   height="172.25758"
   sodipodi:docname="timer-applet.svg">
  <metadata
     id="metadata3045">
    <rdf:RDF>
      <cc:Work
         rdf:about="">
        <dc:format>image/svg+xml</dc:format>
        <dc:type
           rdf:resource="http://purl.org/dc/dcmitype/StillImage" />
        <dc:title />
      </cc:Work>
    </rdf:RDF>
  </metadata>
  <defs
     id="defs3043" />
  <sodipodi:namedview
     pagecolor="#ffffff"
     bordercolor="#666666"
     borderopacity="1"
     objecttolerance="10"
     gridtolerance="10"
     guidetolerance="10"
     inkscape:pageopacity="0"
     inkscape:pageshadow="2"
     inkscape:window-width="1280"
     inkscape:window-height="749"
     id="namedview3041"
     showgrid="false"
     fit-margin-top="0"
     fit-margin-left="0"
     fit-margin-right="0"
     fit-margin-bottom="0"
     inkscape:zoom="1.959275"
     inkscape:cx="155.87617"
     inkscape:cy="55.540236"
     inkscape:window-x="0"
     inkscape:window-y="26"
     inkscape:window-maximized="1"
     inkscape:current-layer="g3757" />
  <g
     id="g3753"
     transform="translate(3.09375,2.9967839)">
    <g
       id="g3757">
      <path
         sodipodi:type="arc"
         style="fill:#000000;fill-opacity:0;fill-rule:evenodd;stroke:#cccccc;stroke-width:10.43998623;stroke-linecap:butt;stroke-linejoin:miter;stroke-miterlimit:4;stroke-opacity:1;stroke-dasharray:none"
         id="path3051"
         sodipodi:cx="92.030075"
         sodipodi:cy="76.511276"
         sodipodi:rx="57.744362"
         sodipodi:ry="57.744362"
         d="m 149.77444,76.511276 c 0,31.891334 -25.85303,57.744364 -57.744365,57.744364 -31.89133,0 -57.744362,-25.85303 -57.744362,-57.744364 0,-31.89133 25.853032,-57.744362 57.744362,-57.744362 31.891335,0 57.744365,25.853032 57.744365,57.744362 z"
         transform="matrix(0.95785566,0,0,0.95785566,7.9189603,3.069335)" />
      <rect
         style="fill:#cccccc;fill-opacity:1;stroke:#cccccc;stroke-width:5;stroke-miterlimit:4;stroke-opacity:1;stroke-dasharray:none"
         id="rect3821"
         width="18.766916"
         height="58.105267"
         x="86.491539"
         y="46.957603" />
      <path
         style="fill:none;stroke:#cccccc;stroke-width:10;stroke-linecap:butt;stroke-linejoin:miter;stroke-miterlimit:4;stroke-opacity:1;stroke-dasharray:none"
         d="M 189.34868,142.23579 C 180.8597,79.473699 195.88368,2.144332 95.694547,2.025265 -0.11891521,0.271265 9.6995339,78.1116 2.0404135,142.59669 l 7.5789474,15.8797 c 55.4958241,6.42539 112.2299091,8.88836 172.5112791,0 z"
         id="path3825"
         inkscape:connector-curvature="0"
         sodipodi:nodetypes="cccccc" />
      <path
         style="fill:#cccccc;fill-opacity:1;fill-rule:evenodd;stroke:#cccccc;stroke-width:2.55196427999999997;stroke-miterlimit:4;stroke-opacity:1;stroke-dasharray:none"
         d="m 79.725553,161.49921 c -17.699726,-0.7479 -38.971452,-2.3132 -55.499942,-4.08403 l -8.043971,-0.86181 -2.853357,-5.90773 -2.853356,-5.90772 0.421612,-3.82795 c 0.231887,-2.10537 1.228889,-13.3748 2.215561,-25.04318 2.761903,-32.662277 4.755007,-45.464717 9.251661,-59.426841 1.875861,-5.824555 7.364242,-16.744022 10.498253,-20.886909 10.215282,-13.503709 24.238129,-21.064448 44.75506,-24.130713 7.397053,-1.105494 31.446696,-1.26662 38.601566,-0.258621 21.01439,2.960566 34.13695,8.534323 44.38117,18.850731 8.79524,8.857227 14.42169,20.209757 18.05313,36.425931 2.62295,11.712781 3.56464,19.433025 5.44157,44.611622 0.71147,9.54434 1.6593,20.97621 2.10627,25.40414 l 0.81268,8.05078 -2.70479,6.11262 c -1.48764,3.36194 -2.92648,6.11262 -3.19744,6.11262 -0.27095,0 -4.99169,0.56254 -10.49052,1.2501 -22.30161,2.78851 -42.23633,3.8763 -68.69307,3.74842 -10.386492,-0.0502 -20.377432,-0.15436 -22.202087,-0.23146 l 0,0 z M 108.2286,139.13546 c 25.35099,-3.80767 45.57821,-23.31671 50.40369,-48.614088 1.14597,-6.007692 1.1422,-16.351002 -0.008,-22.320302 C 154.05401,44.485616 136.67,26.325832 112.90109,20.437566 106.78786,18.923138 95.822997,18.540065 89.608959,19.623823 67.921238,23.406267 50.494929,37.498657 42.778855,57.494615 c -9.153831,23.721861 -2.279631,51.409055 16.78618,67.609635 9.594712,8.15281 18.85869,12.2174 32.92034,14.44388 3.094537,0.48999 11.137005,0.27917 15.743225,-0.41267 z"
         id="path3758"
         inkscape:connector-curvature="0"
         transform="translate(-3.09375,-2.9967839)" />
    </g>
  </g>
</svg>
