<?xml version="1.0" encoding="UTF-8" standalone="no"?>
<!-- Created with Inkscape (http://www.inkscape.org/) -->

<svg
   xmlns:dc="http://purl.org/dc/elements/1.1/"
   xmlns:cc="http://creativecommons.org/ns#"
   xmlns:rdf="http://www.w3.org/1999/02/22-rdf-syntax-ns#"
   xmlns:svg="http://www.w3.org/2000/svg"
   xmlns="http://www.w3.org/2000/svg"
   xmlns:sodipodi="http://sodipodi.sourceforge.net/DTD/sodipodi-0.dtd"
   xmlns:inkscape="http://www.inkscape.org/namespaces/inkscape"
   id="svg7384"
   sodipodi:docname="utilities-timer-symbolic.svg"
   version="1.1"
   inkscape:version="0.48.2 r9819"
   height="16"
   width="16">
  <metadata
     id="metadata90">
    <rdf:RDF>
      <cc:Work
         rdf:about="">
        <dc:format>image/svg+xml</dc:format>
        <dc:type
           rdf:resource="http://purl.org/dc/dcmitype/StillImage" />
        <dc:title>Gnome Symbolic Icon Theme</dc:title>
      </cc:Work>
    </rdf:RDF>
  </metadata>
  <sodipodi:namedview
     inkscape:cy="6.3641398"
     pagecolor="#555753"
     borderopacity="1"
     showborder="false"
     inkscape:bbox-paths="false"
     guidetolerance="10"
     inkscape:window-width="1280"
     showguides="true"
     inkscape:object-nodes="true"
     inkscape:snap-bbox="true"
     inkscape:pageshadow="2"
     inkscape:guide-bbox="true"
     inkscape:snap-nodes="true"
     bordercolor="#666666"
     objecttolerance="10"
     id="namedview88"
     showgrid="true"
     inkscape:window-maximized="1"
     inkscape:window-x="0"
     inkscape:snap-global="true"
     inkscape:window-y="26"
     gridtolerance="10"
     inkscape:window-height="749"
     inkscape:snap-to-guides="true"
     inkscape:current-layer="layer11"
     inkscape:zoom="11.313708"
     inkscape:cx="18.552161"
     inkscape:snap-grids="true"
     inkscape:pageopacity="1">
    <inkscape:grid
       spacingx="1px"
       spacingy="1px"
       id="grid4866"
       empspacing="2"
       enabled="true"
       type="xygrid"
       snapvisiblegridlinesonly="true"
       visible="true" />
  </sodipodi:namedview>
  <title
     id="title9167">Gnome Symbolic Icon Theme</title>
  <defs
     id="defs7386" />
  <g
     inkscape:label="status"
     transform="translate(-62,-381)"
     inkscape:groupmode="layer"
     id="layer9"
     style="display:inline" />
  <g
     inkscape:label="devices"
     transform="translate(-62,-381)"
     inkscape:groupmode="layer"
     id="layer10" />
  <g
     inkscape:label="apps"
     transform="translate(-62,-381)"
     inkscape:groupmode="layer"
     id="layer11">
    <g
       transform="matrix(0.82289476,0,0,0.82289476,-54.093228,78.243597)"
       id="g4474"
       style="fill:none" />
    <g
       transform="matrix(1.0990866,0,0,1.0990866,33.120532,189.29954)"
       id="layer10-7" />
    <g
       transform="matrix(1.0990866,0,0,1.0990866,33.120532,189.29954)"
       id="layer11-2" />
    <g
       transform="matrix(1.0990866,0,0,1.0990866,33.120532,189.29954)"
       id="layer12-2" />
    <g
       transform="matrix(1.0990866,0,0,1.0990866,33.120532,189.29954)"
       id="layer13-6" />
    <g
       transform="matrix(1.0990866,0,0,1.0990866,33.120532,189.29954)"
       id="layer14-1" />
    <g
       transform="matrix(1.0990866,0,0,1.0990866,33.120532,189.29954)"
       id="layer15-0" />
    <g
       id="g4046"
       transform="matrix(0.36431054,0,0,0.36431054,67.650845,386.87731)">
      <path
         inkscape:connector-curvature="0"
         id="rect3335"
         d="m 5.5775954,-10.917613 c -4.926397,0.09736 -9.5436519,0.9529354 -12.5000001,3.2187504 -3.5101073,2.8331515 -5.8472773,26.8682196 -5.8750003,27.1562496 l 0,0.03125 c -7.4e-5,7.72e-4 0,0.0625 0,0.0625 l 0.03125,0 1.4375,3.4375 c 6.6828807,1.001182 13.2013644,1.274529 18.8125004,1.21875 0.07052,-7.02e-4 0.148524,8.05e-4 0.21875,0 5.6111356,0.05578 12.1296196,-0.217568 18.8124996,-1.21875 l 1.4375,-3.4375 0.03125,0 c 0,0 7.4e-5,-0.06173 0,-0.0625 l 0,-0.03125 c -0.02772,-0.28803 -2.364893,-24.3230981 -5.875,-27.1562496 -2.956348,-2.2658149 -7.573603,-3.1213914 -12.4999996,-3.2187504 -0.626046,-0.01237 -1.269829,-0.01025 -1.90625,0 -0.0728,-0.0015 -0.145718,0.0012 -0.21875,0 -0.63642,-0.01025 -1.280204,-0.01237 -1.90625,0 z m 2,3.8750004 c 6.6380376,0 12.0312496,5.3932119 12.0312496,12.0312497 0,6.6380379 -5.393212,11.9999999 -12.0312496,11.9999999 -6.638038,0 -12.0000001,-5.361962 -12.0000001,-11.9999999 0,-6.6380378 5.3619621,-12.0312497 12.0000001,-12.0312497 z"
         style="fill:#bebebe;fill-opacity:1;stroke:#bebebe;stroke-width:1;stroke-linejoin:round;stroke-miterlimit:4;stroke-opacity:1" />
      <rect
         y="-1.4001455"
         x="5.4920464"
         height="12.75308"
         width="4.1886005"
         id="rect3512"
         style="fill:#bebebe;fill-opacity:1;stroke:#bebebe;stroke-width:0.48494926;stroke-linejoin:round;stroke-miterlimit:4;stroke-opacity:1;stroke-dasharray:none" />
    </g>
  </g>
  <g
     inkscape:label="actions"
     transform="translate(-62,-381)"
     inkscape:groupmode="layer"
     id="layer12" />
  <g
     inkscape:label="places"
     transform="translate(-62,-381)"
     inkscape:groupmode="layer"
     id="layer13" />
  <g
     inkscape:label="mimetypes"
     transform="translate(-62,-381)"
     inkscape:groupmode="layer"
     id="layer14" />
  <g
     inkscape:label="emblems"
     transform="translate(-62,-381)"
     inkscape:groupmode="layer"
     id="layer15" />
</svg>
